<svg width="217" height="103" viewBox="0 0 217 103" xmlns="http://www.w3.org/2000/svg"><g fill="none" fill-rule="evenodd"><path fill="#F8E708" d="M121.892029 27.2280665h-17.974903l15.566217-8.9874518-3.254204-5.6365823-15.5674409 8.9874518 8.9880639-15.56744122-5.637806-3.25481578-8.987452 15.5668294V.36115297h-6.5090198V18.3366685L79.5274206 2.7692272l-5.6371941 3.25481578 8.9880636 15.56744122-15.5674412-8.9874518-3.2548158 5.6365823 15.5668294 8.9874518H61.6479589v6.5096316h17.9761273l-15.5680531 8.9880636 3.2548158 5.6365823 15.5674412-8.9874518-8.9880636 15.5674412 5.6371941 3.2548158 8.9880636-15.5674413v17.9755155h6.5090198V42.6303197l8.987452 15.5668295 5.637806-3.2548158-8.9880639-15.5674412 15.5674409 8.9874518 3.254204-5.6365823-15.567441-8.9880636h17.976127z"/><path fill="#C6D9CC" d="M141.945753 40.6117842V15.4613405h-28.344567v16.672957H94.4171248v59.8083129H170.88526V40.6117842z"/><path fill="#FFFFFF" d="M165.871598 85.8841977h5.77777778v6.17067555H165.871598z"/><path fill="#C6D9CC" d="M170.9047511 22.10371602h-4.06095238v22.3352381h4.06095238z"/><path fill="#DE1414" d="M170.79538813 22.10371595v2.31111115H189.284277v-2.31111115z"/><path fill="#F49004" d="M170.79538824 24.41482695v2.31111115h18.48888886v-2.31111115z"/><path fill="#F8E708" d="M170.79538824 26.72593806v2.88888884h18.48888886v-2.88888884z"/><path fill="#06802C" d="M170.79538846 29.03704895v2.31111115h18.48888884v-2.31111115z"/><path fill="#004DF5" d="M170.79538857 31.34815995v2.31111115h18.48888893v-2.31111115z"/><path fill="#770E89" d="M170.79538868 33.65927095v2.31111115h18.48888892v-2.31111115zM215.897393 91.9426104V63.4146093l-9.092117-8.0203124-6.64171 5.848186-6.645802-5.8459065-6.680006 5.8820944-6.649311-5.8555946-9.303187 8.2069506V91.898729l4.809897.0048441V65.7283528l4.495922-3.9664174 4.280758 3.7695213v26.3806647l4.823637.0045591V65.4505326l4.224044-3.719656 4.281051 3.7661019v26.4279654l4.823637.004844V65.4120652l4.178439-3.679194 4.308823 3.80115v26.4040301z"/><path d="M169.96974 91.1722055c-.739298.7426111-1.953555.7426111-2.692616 0-.739298-.7426112-.739298-1.9627844 0-2.7053956.739061-.7428478 1.953318-.7428478 2.692616 0 .739298.7426112.739298 1.9627844 0 2.7053956m8.503111.7163429l-2.070697-2.0704606 2.18642-2.1866563-.019169-.0189321c.976659-.9918048 1.579883-2.3523121 1.579883-3.8545733 0-3.034104-2.459752-5.4940923-5.494093-5.4940923-1.703651 0-3.226264.7757424-4.234161 1.9930757l-1.799022 1.7992584-2.195886-2.195649-.003786.004023c-.993462-.9892016-2.363198-1.6007081-3.875872-1.6007081-3.034341 0-5.494092 2.4599883-5.494092 5.4940923 0 1.5732566.661913 2.9907967 1.721637 3.9923043l2.07046 2.0706972-2.18642 2.1864196.019406.0191688c-.976896.9918048-1.58012 2.352312-1.58012 3.8543367 0 3.0343405 2.459752 5.4940923 5.494093 5.4940923 1.703888 0 3.226501-.775742 4.234161-1.9930758l1.799259-1.7990217 2.195649 2.195649.003786-.0040231c.993698.9889646 2.363435 1.6004716 3.875872 1.6004716 3.034577 0 5.494329-2.4597518 5.494329-5.4940923 0-1.57302-.66215-2.9905602-1.721637-3.9923043M124.144476 41.2856161h8.182335v-8.993615h-8.182335zM141.823187 60.6052234h8.182336v-8.993615h-8.182336z" fill="#004DF5"/><path fill="#C6D9CC" d="M82.1219835 32.2920011H47.135955L34.6430848 56.3855649v35.5570455h59.77404l6.571547-.2134465-1.737283-35.620748-4.834264.0308866z"/><path d="M115.881694 55.8961647c0-6.153371-5.178513-11.0970192-11.415115-10.7109985-5.4401659.33723-9.8270259 4.8336299-10.0403657 10.2795355-.070316 1.7923415.2989628 3.4914067 1.0092983 4.9986573.6768517 1.4364563.6921586 3.1101694.0119585 4.5447123-.6605881 1.3919706-1.0303453 2.9489686-1.0303453 4.5920679 0 5.0890637 3.5435458 9.34725 8.2963362 10.4512597v12.0034743h4.871897V80.0513989c4.753269-1.1040097 8.296336-5.362196 8.296336-10.4512597 0-1.6430993-.369279-3.199619-1.029388-4.5915896-.676374-1.4259328-.676374-3.0943841 0-4.5207952.660109-1.3919706 1.029388-2.9484903 1.029388-4.5915897" fill="#008D2C"/><path d="M19.0414305 57.1317615l2.6821637 14.4612253c.1441979.6629788.2220979 1.3504049.2220979 2.0564774 0 4.4713777-3.0455589 8.2300532-7.1755025 9.3173384v8.762508H9.85047246v-8.762508c-4.12952926-1.0872852-7.17550252-4.8459607-7.17550252-9.3173384 0-.6153272.06008246-1.2165661.17071705-1.7999875h-.0770713l2.81061579-14.7177152h.00165745c.37831228-3.382435 3.24652435-6.0119747 6.72964927-6.0119747 3.4831249 0 6.3509226 2.6295397 6.7296493 6.0119747h.001243zm25.1366344 16.647315c0 4.4713777-3.0459733 8.2296388-7.1750882 9.3173385v8.6328128h-4.9197171V83.096415c-4.1299436-1.0872853-7.1759169-4.8459608-7.1759169-9.3173385 0-.9348001.1354963-1.83728.3841134-2.6921083l-.0029006.0004144.0327346-.1056623c.013674-.0455798.0281766-.0911596.0422649-.136325l2.6763626-8.5955202c.0236186-.0816293.0484803-.1620155.0749995-.2419873l.0232042-.0741708h.0020718c.9161539-2.6552301 3.4358877-4.563366 6.4027179-4.563366 2.98962 0 5.525514 1.9383843 6.4238503 4.6259347h.0016574l.0223756.0716845c.0140883.0443368.0277622.0895022.0414361.1346676l2.5238775 8.169142c.4006878 1.059523.621957 2.2073051.621957 3.4072967z" fill="#DE1414"/><path fill="#ED951B" d="M77.3728953 56.9176353h-6.5568096v-9.1626365h.1120464l-.0053926-.0059918 3.1984144-3.3188493 3.1984145 3.3188493-.0053926.0059918h.0587195zM56.8102899 56.9176353h-6.5574087v-9.1626365h.1120464l-.0047934-.0059918 3.1984144-3.3188493 3.1984145 3.3188493-.0053926.0059918h.0587194z"/></g></svg>