<svg viewBox="0 0 128 128" xmlns="http://www.w3.org/2000/svg"><g fill="#D9DDE2" fill-rule="evenodd"><path d="M35.45 86.458h-4.075V69.64h4.075zM39.022 58.434a5.61 5.61 0 1 1-11.219 0 5.61 5.61 0 0 1 11.22 0"/><path d="M41.393 71.484a7.98 7.98 0 1 1-15.96 0 7.98 7.98 0 0 1 15.96 0"/><path d="M27.838 57.804l-2.26 12.19h15.737l-2.328-12.19zM9.719 61.833a5.556 5.556 0 0 1 10.557-.052h.028l2.268 7.286a7.983 7.983 0 0 1-5.536 10.242v7.149h-4.074v-7.149a7.983 7.983 0 0 1-5.42-10.565l2.136-6.911h.04zM120.775 86.289v-23.78l-7.404-6.686-5.408 4.875-5.412-4.873-5.44 4.903-5.414-4.881-7.576 6.841v23.564l3.917.004V64.437l3.66-3.306 3.487 3.142v21.99l3.928.004V64.206l3.44-3.101 3.486 3.14v22.029l3.928.004V64.173l3.402-3.066 3.509 3.168v22.01z"/><path d="M65.438 44.756L45.017 63.493v22.854h41.591l-.01-23.14-21.16-18.451zM52.663 78.708h4.478v-8.179h-4.478v8.179z"/></g></svg>
